#include "hUGEDriver.h"
#include <stddef.h>

static const unsigned char order_cnt = 20;

static const unsigned char P0[] = {
    DN(Gs4,1,0x000),
    DN(___,0,0x000),
    DN(Ds5,1,0x000),
    DN(___,0,0x000),
    DN(C_5,1,0x000),
    DN(___,0,0x000),
    DN(G_5,1,0x000),
    DN(___,0,0x000),
    DN(Ds5,1,0x000),
    DN(___,0,0x000),
    DN(As5,1,0x000),
    DN(___,0,0x000),
    DN(G_5,1,0x000),
    DN(___,0,0x000),
    DN(D_6,1,0x000),
    DN(___,0,0x000),
    DN(As5,1,0x000),
    DN(___,0,0x000),
    DN(F_6,1,0x000),
    DN(___,0,0x000),
    DN(D_6,1,0x000),
    DN(___,0,0x000),
    DN(As6,1,0x000),
    DN(___,0,0x000),
    DN(Gs6,1,0x000),
    DN(___,0,0x000),
    DN(Cs6,1,0x000),
    DN(___,0,0x000),
    DN(F_6,1,0x000),
    DN(___,0,0x000),
    DN(Gs5,1,0x000),
    DN(___,0,0x000),
    DN(Cs6,1,0x000),
    DN(___,0,0x000),
    DN(F_5,1,0x000),
    DN(___,0,0x000),
    DN(Gs5,1,0x000),
    DN(___,0,0x000),
    DN(Cs5,1,0x000),
    DN(___,0,0x000),
    DN(F_5,1,0x000),
    DN(___,0,0x000),
    DN(Gs4,1,0x000),
    DN(___,0,0x000),
    DN(Cs5,1,0x000),
    DN(___,0,0x000),
    DN(G_4,1,0x000),
    DN(___,0,0x000),
    DN(___,0,0x000),
    DN(___,0,0x000),
    DN(___,0,0x000),
    DN(___,0,0x000),
    DN(___,0,0x000),
    DN(___,0,0x000),
    DN(___,0,0x000),
    DN(___,0,0x000),
    DN(___,0,0x000),
    DN(___,0,0x000),
    DN(___,0,0x000),
    DN(___,0,0x000),
    DN(___,0,0x000),
    DN(___,0,0x000),
    DN(___,0,0x000),
    DN(___,0,0x000),
};
static const unsigned char P1[] = {
    DN(___,0,0x000),
    DN(___,0,0x000),
    DN(___,0,0x000),
    DN(Gs4,2,0x000),
    DN(___,0,0x000),
    DN(Ds5,2,0x000),
    DN(___,0,0x000),
    DN(C_5,2,0x000),
    DN(___,0,0x000),
    DN(G_5,2,0x000),
    DN(___,0,0x000),
    DN(Ds5,2,0x000),
    DN(___,0,0x000),
    DN(As5,2,0x000),
    DN(___,0,0x000),
    DN(G_5,2,0x000),
    DN(___,0,0x000),
    DN(D_6,2,0x000),
    DN(___,0,0x000),
    DN(As5,2,0x000),
    DN(___,0,0x000),
    DN(F_6,2,0x000),
    DN(___,0,0x000),
    DN(D_6,2,0x000),
    DN(___,0,0x000),
    DN(As6,2,0x000),
    DN(___,0,0x000),
    DN(Gs6,2,0x000),
    DN(___,0,0x000),
    DN(Cs6,2,0x000),
    DN(___,0,0x000),
    DN(F_6,2,0x000),
    DN(___,0,0x000),
    DN(Gs5,2,0x000),
    DN(___,0,0x000),
    DN(Cs6,2,0x000),
    DN(___,0,0x000),
    DN(F_5,2,0x000),
    DN(___,0,0x000),
    DN(Gs5,2,0x000),
    DN(___,0,0x000),
    DN(Cs5,2,0x000),
    DN(___,0,0x000),
    DN(F_5,2,0x000),
    DN(___,0,0x000),
    DN(Gs4,2,0x000),
    DN(___,0,0x000),
    DN(Cs5,2,0x000),
    DN(___,0,0x000),
    DN(G_4,2,0x000),
    DN(___,0,0x000),
    DN(___,0,0x000),
    DN(___,0,0x000),
    DN(___,0,0x000),
    DN(___,0,0x000),
    DN(___,0,0x000),
    DN(___,0,0x000),
    DN(___,0,0x000),
    DN(___,0,0x000),
    DN(___,0,0x000),
    DN(___,0,0x000),
    DN(___,0,0x000),
    DN(___,0,0x000),
    DN(___,0,0x000),
};
static const unsigned char P2[] = {
    DN(Gs4,1,0x000),
    DN(___,0,0x000),
    DN(___,0,0x000),
    DN(___,0,0x000),
    DN(___,0,0x000),
    DN(___,0,0x000),
    DN(___,0,0x000),
    DN(___,0,0x000),
    DN(___,0,0x000),
    DN(___,0,0x000),
    DN(___,0,0x000),
    DN(___,0,0x000),
    DN(___,0,0x000),
    DN(___,0,0x000),
    DN(___,0,0x000),
    DN(___,0,0x000),
    DN(___,0,0x000),
    DN(___,0,0x000),
    DN(___,0,0x000),
    DN(___,0,0x000),
    DN(___,0,0x000),
    DN(___,0,0x000),
    DN(___,0,0x000),
    DN(___,0,0x000),
    DN(Cs4,1,0x000),
    DN(___,0,0x000),
    DN(___,0,0x000),
    DN(___,0,0x000),
    DN(___,0,0x000),
    DN(___,0,0x000),
    DN(___,0,0x000),
    DN(___,0,0x000),
    DN(___,0,0x000),
    DN(___,0,0x000),
    DN(___,0,0x000),
    DN(___,0,0x000),
    DN(Cs5,1,0x3AA),
    DN(___,0,0x000),
    DN(___,0,0x000),
    DN(___,0,0x000),
    DN(___,0,0x000),
    DN(___,0,0x000),
    DN(G_4,1,0x000),
    DN(___,0,0x000),
    DN(___,0,0x000),
    DN(___,0,0x000),
    DN(___,0,0x000),
    DN(___,0,0xD01),
    DN(___,0,0x000),
    DN(___,0,0x000),
    DN(___,0,0x000),
    DN(___,0,0x000),
    DN(___,0,0x000),
    DN(___,0,0x000),
    DN(___,0,0x000),
    DN(___,0,0x000),
    DN(___,0,0x000),
    DN(___,0,0x000),
    DN(___,0,0x000),
    DN(___,0,0x000),
    DN(___,0,0x000),
    DN(___,0,0x000),
    DN(___,0,0x000),
    DN(___,0,0x000),
};
static const unsigned char P3[] = {
    DN(___,0,0xC00),
    DN(___,0,0x000),
    DN(___,0,0x000),
    DN(___,0,0x000),
    DN(___,0,0x000),
    DN(___,0,0x000),
    DN(___,0,0x000),
    DN(___,0,0x000),
    DN(___,0,0x000),
    DN(___,0,0x000),
    DN(___,0,0x000),
    DN(___,0,0x000),
    DN(___,0,0x000),
    DN(___,0,0x000),
    DN(___,0,0x000),
    DN(___,0,0x000),
    DN(___,0,0x000),
    DN(___,0,0x000),
    DN(___,0,0x000),
    DN(___,0,0x000),
    DN(___,0,0x000),
    DN(___,0,0x000),
    DN(___,0,0x000),
    DN(___,0,0x000),
    DN(___,0,0x000),
    DN(___,0,0x000),
    DN(___,0,0x000),
    DN(___,0,0x000),
    DN(___,0,0x000),
    DN(___,0,0x000),
    DN(___,0,0x000),
    DN(___,0,0x000),
    DN(___,0,0x000),
    DN(___,0,0x000),
    DN(___,0,0x000),
    DN(___,0,0x000),
    DN(___,0,0x000),
    DN(___,0,0x000),
    DN(___,0,0x000),
    DN(___,0,0x000),
    DN(___,0,0x000),
    DN(___,0,0x000),
    DN(___,0,0x000),
    DN(___,0,0x000),
    DN(___,0,0x000),
    DN(___,0,0x000),
    DN(___,0,0x000),
    DN(___,0,0x000),
    DN(___,0,0x000),
    DN(___,0,0x000),
    DN(___,0,0x000),
    DN(___,0,0x000),
    DN(___,0,0x000),
    DN(___,0,0x000),
    DN(___,0,0x000),
    DN(___,0,0x000),
    DN(___,0,0x000),
    DN(___,0,0x000),
    DN(___,0,0x000),
    DN(___,0,0x000),
    DN(___,0,0x000),
    DN(___,0,0x000),
    DN(___,0,0x000),
    DN(___,0,0x000),
};
static const unsigned char P6[] = {
    DN(Gs4,1,0x000),
    DN(___,0,0x000),
    DN(___,0,0x000),
    DN(___,0,0x000),
    DN(___,0,0x000),
    DN(___,0,0x000),
    DN(___,0,0x000),
    DN(___,0,0x000),
    DN(___,0,0x000),
    DN(___,0,0x000),
    DN(___,0,0x000),
    DN(___,0,0x000),
    DN(___,0,0x000),
    DN(___,0,0x000),
    DN(___,0,0x000),
    DN(___,0,0x000),
    DN(___,0,0x000),
    DN(___,0,0x000),
    DN(___,0,0x000),
    DN(___,0,0x000),
    DN(___,0,0x000),
    DN(___,0,0x000),
    DN(___,0,0x000),
    DN(___,0,0x000),
    DN(Fs4,1,0x000),
    DN(___,0,0x000),
    DN(___,0,0x000),
    DN(___,0,0x000),
    DN(___,0,0x000),
    DN(___,0,0x000),
    DN(___,0,0x000),
    DN(___,0,0x000),
    DN(___,0,0x000),
    DN(___,0,0x000),
    DN(___,0,0x000),
    DN(___,0,0x000),
    DN(Cs5,1,0x3AA),
    DN(___,0,0x000),
    DN(___,0,0x000),
    DN(___,0,0x000),
    DN(___,0,0x000),
    DN(___,0,0x000),
    DN(___,0,0x000),
    DN(___,0,0x000),
    DN(___,0,0x000),
    DN(___,0,0x000),
    DN(___,0,0x000),
    DN(___,0,0xD01),
    DN(___,0,0x000),
    DN(___,0,0x000),
    DN(___,0,0x000),
    DN(___,0,0x000),
    DN(___,0,0x000),
    DN(___,0,0x000),
    DN(___,0,0x000),
    DN(___,0,0x000),
    DN(___,0,0x000),
    DN(___,0,0x000),
    DN(___,0,0x000),
    DN(___,0,0x000),
    DN(___,0,0x000),
    DN(___,0,0x000),
    DN(___,0,0x000),
    DN(___,0,0x000),
};
static const unsigned char P9[] = {
    DN(D_6,3,0x103),
    DN(___,0,0x000),
    DN(D_6,3,0x000),
    DN(___,0,0x000),
    DN(As5,3,0x000),
    DN(___,0,0x000),
    DN(F_6,3,0x000),
    DN(___,0,0x000),
    DN(___,0,0x000),
    DN(___,0,0x463),
    DN(___,0,0x463),
    DN(___,0,0x463),
    DN(___,0,0x463),
    DN(___,0,0x463),
    DN(___,0,0x463),
    DN(___,0,0x463),
    DN(___,0,0x463),
    DN(___,0,0x463),
    DN(___,0,0x463),
    DN(___,0,0x463),
    DN(___,0,0x463),
    DN(___,0,0x463),
    DN(___,0,0x463),
    DN(___,0,0x463),
    DN(F_5,3,0xC03),
    DN(___,0,0x000),
    DN(F_6,3,0x106),
    DN(___,0,0x000),
    DN(G_6,3,0xC01),
    DN(___,0,0x000),
    DN(C_6,3,0x000),
    DN(___,0,0x000),
    DN(F_5,3,0xC01),
    DN(___,0,0x000),
    DN(G_6,3,0x000),
    DN(___,0,0x000),
    DN(F_6,3,0x000),
    DN(___,0,0x000),
    DN(As5,3,0xC02),
    DN(___,0,0x000),
    DN(F_6,3,0xC02),
    DN(___,0,0x000),
    DN(As5,3,0xC01),
    DN(___,0,0x000),
    DN(F_6,3,0xC01),
    DN(___,0,0x000),
    DN(B_5,4,0xC04),
    DN(Cs6,4,0x000),
    DN(___,0,0x000),
    DN(___,0,0x000),
    DN(___,0,0x000),
    DN(___,0,0x000),
    DN(___,0,0x000),
    DN(___,0,0x000),
    DN(___,0,0x000),
    DN(___,0,0x000),
    DN(___,0,0x000),
    DN(___,0,0x000),
    DN(___,0,0x000),
    DN(___,0,0x000),
    DN(___,0,0x000),
    DN(___,0,0x000),
    DN(___,0,0x000),
    DN(___,0,0x000),
};
static const unsigned char P13[] = {
    DN(D_6,3,0x103),
    DN(___,0,0x000),
    DN(D_6,3,0x000),
    DN(___,0,0x000),
    DN(As5,3,0x000),
    DN(___,0,0x000),
    DN(F_5,3,0x000),
    DN(___,0,0x000),
    DN(___,0,0x000),
    DN(___,0,0x463),
    DN(___,0,0x463),
    DN(___,0,0x463),
    DN(___,0,0x463),
    DN(___,0,0x463),
    DN(___,0,0x463),
    DN(___,0,0x463),
    DN(___,0,0x463),
    DN(___,0,0x463),
    DN(___,0,0x463),
    DN(___,0,0x463),
    DN(___,0,0x463),
    DN(___,0,0x463),
    DN(___,0,0x463),
    DN(___,0,0x463),
    DN(F_5,3,0xC03),
    DN(___,0,0x000),
    DN(Ds5,3,0x000),
    DN(___,0,0x000),
    DN(Ds5,3,0xC01),
    DN(___,0,0x000),
    DN(F_5,3,0x000),
    DN(___,0,0x000),
    DN(F_5,3,0xC01),
    DN(___,0,0x000),
    DN(As5,3,0x000),
    DN(___,0,0x000),
    DN(C_6,3,0x000),
    DN(___,0,0x000),
    DN(As5,3,0xC02),
    DN(___,0,0x000),
    DN(C_6,3,0xC02),
    DN(___,0,0x000),
    DN(As5,3,0xC01),
    DN(___,0,0x000),
    DN(C_6,3,0xC01),
    DN(___,0,0x000),
    DN(C_6,3,0xC04),
    DN(D_6,3,0x000),
    DN(___,0,0x000),
    DN(___,0,0x000),
    DN(___,0,0x000),
    DN(___,0,0x000),
    DN(___,0,0x000),
    DN(___,0,0x000),
    DN(___,0,0x000),
    DN(___,0,0x000),
    DN(___,0,0x000),
    DN(___,0,0x000),
    DN(___,0,0x000),
    DN(___,0,0x000),
    DN(___,0,0x000),
    DN(___,0,0x000),
    DN(___,0,0x000),
    DN(___,0,0x000),
};
static const unsigned char P17[] = {
    DN(E_4,1,0x000),
    DN(___,0,0x000),
    DN(B_4,1,0x000),
    DN(___,0,0x000),
    DN(Gs4,1,0x000),
    DN(___,0,0x000),
    DN(Ds5,1,0x000),
    DN(___,0,0x000),
    DN(B_4,1,0x000),
    DN(___,0,0x000),
    DN(Fs5,1,0x000),
    DN(___,0,0x000),
    DN(Ds5,1,0x000),
    DN(___,0,0x000),
    DN(As5,1,0x000),
    DN(___,0,0x000),
    DN(Fs5,1,0x000),
    DN(___,0,0x000),
    DN(Cs6,1,0x000),
    DN(___,0,0x000),
    DN(As5,1,0x000),
    DN(___,0,0x000),
    DN(Fs6,1,0x000),
    DN(___,0,0x000),
    DN(E_6,1,0x000),
    DN(___,0,0x000),
    DN(A_5,1,0x000),
    DN(___,0,0x000),
    DN(Cs6,1,0x000),
    DN(___,0,0x000),
    DN(E_5,1,0x000),
    DN(___,0,0x000),
    DN(A_5,1,0x000),
    DN(___,0,0x000),
    DN(Cs5,1,0x000),
    DN(___,0,0x000),
    DN(E_5,1,0x000),
    DN(___,0,0x000),
    DN(A_4,1,0x000),
    DN(___,0,0x000),
    DN(Cs5,1,0x000),
    DN(___,0,0x000),
    DN(E_4,1,0x000),
    DN(___,0,0x000),
    DN(A_4,1,0x000),
    DN(___,0,0x000),
    DN(Ds4,1,0x000),
    DN(___,0,0x000),
    DN(___,0,0x000),
    DN(___,0,0x000),
    DN(___,0,0x000),
    DN(___,0,0x000),
    DN(___,0,0x000),
    DN(___,0,0x000),
    DN(___,0,0x000),
    DN(___,0,0x000),
    DN(___,0,0x000),
    DN(___,0,0x000),
    DN(___,0,0x000),
    DN(___,0,0x000),
    DN(___,0,0x000),
    DN(___,0,0x000),
    DN(___,0,0x000),
    DN(___,0,0x000),
};
static const unsigned char P18[] = {
    DN(D_6,4,0x103),
    DN(___,0,0x000),
    DN(Cs6,4,0x000),
    DN(___,0,0x000),
    DN(B_5,4,0x000),
    DN(___,0,0x000),
    DN(Gs6,4,0x000),
    DN(___,0,0x000),
    DN(___,0,0x000),
    DN(___,0,0x483),
    DN(___,0,0x483),
    DN(___,0,0x483),
    DN(___,0,0x483),
    DN(___,0,0x483),
    DN(___,0,0x483),
    DN(___,0,0x483),
    DN(___,0,0x483),
    DN(___,0,0x483),
    DN(___,0,0x483),
    DN(___,0,0x483),
    DN(___,0,0x483),
    DN(___,0,0x483),
    DN(___,0,0x483),
    DN(___,0,0x483),
    DN(Gs6,4,0xC03),
    DN(___,0,0x000),
    DN(B_5,4,0x107),
    DN(___,0,0x000),
    DN(B_5,4,0x000),
    DN(___,0,0x000),
    DN(A_5,4,0x000),
    DN(___,0,0x000),
    DN(Fs6,4,0x000),
    DN(___,0,0x000),
    DN(___,0,0x483),
    DN(___,0,0x483),
    DN(___,0,0x483),
    DN(___,0,0x483),
    DN(___,0,0x483),
    DN(___,0,0x483),
    DN(___,0,0x483),
    DN(___,0,0x483),
    DN(___,0,0x483),
    DN(___,0,0x483),
    DN(___,0,0x483),
    DN(___,0,0x483),
    DN(F_6,4,0xC01),
    DN(Fs6,4,0xC03),
    DN(___,0,0x000),
    DN(___,0,0x000),
    DN(___,0,0x000),
    DN(___,0,0x000),
    DN(___,0,0x000),
    DN(___,0,0x000),
    DN(___,0,0x000),
    DN(___,0,0x000),
    DN(___,0,0x000),
    DN(___,0,0x000),
    DN(___,0,0x000),
    DN(___,0,0x000),
    DN(___,0,0x000),
    DN(___,0,0x000),
    DN(___,0,0x000),
    DN(___,0,0x000),
};
static const unsigned char P19[] = {
    DN(E_4,1,0x000),
    DN(___,0,0x000),
    DN(___,0,0x000),
    DN(___,0,0x000),
    DN(___,0,0x000),
    DN(___,0,0x000),
    DN(___,0,0x000),
    DN(___,0,0x000),
    DN(___,0,0x000),
    DN(___,0,0x000),
    DN(___,0,0x000),
    DN(___,0,0x000),
    DN(___,0,0x000),
    DN(___,0,0x000),
    DN(___,0,0x000),
    DN(___,0,0x000),
    DN(___,0,0x000),
    DN(___,0,0x000),
    DN(___,0,0x000),
    DN(___,0,0x000),
    DN(___,0,0x000),
    DN(___,0,0x000),
    DN(___,0,0x000),
    DN(___,0,0x000),
    DN(D_4,1,0x000),
    DN(___,0,0x000),
    DN(___,0,0x000),
    DN(___,0,0x000),
    DN(___,0,0x000),
    DN(___,0,0x000),
    DN(___,0,0x000),
    DN(___,0,0x000),
    DN(___,0,0x000),
    DN(___,0,0x000),
    DN(___,0,0x000),
    DN(___,0,0x000),
    DN(A_4,1,0x3AA),
    DN(___,0,0x000),
    DN(___,0,0x000),
    DN(___,0,0x000),
    DN(___,0,0x000),
    DN(___,0,0x000),
    DN(___,0,0x000),
    DN(___,0,0x000),
    DN(___,0,0x000),
    DN(___,0,0x000),
    DN(___,0,0x000),
    DN(___,0,0xD01),
    DN(___,0,0x000),
    DN(___,0,0x000),
    DN(___,0,0x000),
    DN(___,0,0x000),
    DN(___,0,0x000),
    DN(___,0,0x000),
    DN(___,0,0x000),
    DN(___,0,0x000),
    DN(___,0,0x000),
    DN(___,0,0x000),
    DN(___,0,0x000),
    DN(___,0,0x000),
    DN(___,0,0x000),
    DN(___,0,0x000),
    DN(___,0,0x000),
    DN(___,0,0x000),
};
static const unsigned char P21[] = {
    DN(Gs4,1,0x000),
    DN(___,0,0x000),
    DN(Ds5,1,0x000),
    DN(___,0,0x000),
    DN(C_5,1,0x000),
    DN(___,0,0x000),
    DN(G_5,1,0x000),
    DN(___,0,0x000),
    DN(Ds5,1,0x000),
    DN(___,0,0x000),
    DN(As5,1,0x000),
    DN(___,0,0x000),
    DN(G_5,1,0x000),
    DN(___,0,0x000),
    DN(D_6,1,0x000),
    DN(___,0,0x000),
    DN(As5,1,0x000),
    DN(___,0,0x000),
    DN(F_6,1,0x000),
    DN(___,0,0x000),
    DN(D_6,1,0x000),
    DN(___,0,0x000),
    DN(As6,1,0x000),
    DN(___,0,0x000),
    DN(G_4,4,0x000),
    DN(___,0,0x000),
    DN(___,0,0x000),
    DN(___,0,0x000),
    DN(G_4,4,0xC05),
    DN(___,0,0x000),
    DN(___,0,0x000),
    DN(___,0,0x000),
    DN(G_4,4,0xC04),
    DN(___,0,0x000),
    DN(___,0,0x000),
    DN(___,0,0x000),
    DN(G_4,4,0xC03),
    DN(___,0,0x000),
    DN(___,0,0x000),
    DN(___,0,0x000),
    DN(G_4,4,0xC02),
    DN(___,0,0x000),
    DN(___,0,0x000),
    DN(___,0,0x000),
    DN(G_4,4,0xC01),
    DN(___,0,0x000),
    DN(___,0,0x000),
    DN(___,0,0x000),
    DN(___,0,0x000),
    DN(___,0,0x000),
    DN(___,0,0x000),
    DN(___,0,0x000),
    DN(___,0,0x000),
    DN(___,0,0x000),
    DN(___,0,0x000),
    DN(___,0,0x000),
    DN(___,0,0x000),
    DN(___,0,0x000),
    DN(___,0,0x000),
    DN(___,0,0x000),
    DN(___,0,0x000),
    DN(___,0,0x000),
    DN(___,0,0x000),
    DN(___,0,0x000),
};
static const unsigned char P22[] = {
    DN(G_6,4,0x000),
    DN(___,0,0x000),
    DN(___,0,0x000),
    DN(___,0,0x000),
    DN(___,0,0x483),
    DN(___,0,0x483),
    DN(___,0,0x483),
    DN(___,0,0x483),
    DN(G_6,4,0xC03),
    DN(___,0,0x483),
    DN(___,0,0x483),
    DN(___,0,0x483),
    DN(___,0,0x483),
    DN(G_6,4,0xC02),
    DN(___,0,0x483),
    DN(___,0,0x483),
    DN(___,0,0x483),
    DN(___,0,0x483),
    DN(G_6,4,0xC01),
    DN(___,0,0x483),
    DN(___,0,0x483),
    DN(___,0,0x483),
    DN(___,0,0x483),
    DN(___,0,0x483),
    DN(___,0,0x000),
    DN(C_5,4,0x000),
    DN(___,0,0x000),
    DN(___,0,0x000),
    DN(___,0,0x000),
    DN(C_5,4,0xC05),
    DN(___,0,0x000),
    DN(___,0,0x000),
    DN(___,0,0x000),
    DN(C_5,4,0xC04),
    DN(___,0,0x000),
    DN(___,0,0x000),
    DN(___,0,0x000),
    DN(C_5,4,0xC03),
    DN(___,0,0x000),
    DN(___,0,0x000),
    DN(___,0,0x000),
    DN(C_5,4,0xC02),
    DN(___,0,0x000),
    DN(___,0,0x000),
    DN(___,0,0x000),
    DN(C_5,4,0xC01),
    DN(___,0,0x000),
    DN(___,0,0xD01),
    DN(___,0,0x000),
    DN(___,0,0x000),
    DN(___,0,0x000),
    DN(___,0,0x000),
    DN(___,0,0x000),
    DN(___,0,0x000),
    DN(___,0,0x000),
    DN(___,0,0x000),
    DN(___,0,0x000),
    DN(___,0,0x000),
    DN(___,0,0x000),
    DN(___,0,0x000),
    DN(___,0,0x000),
    DN(___,0,0x000),
    DN(___,0,0x000),
    DN(___,0,0x000),
};
static const unsigned char P23[] = {
    DN(Gs4,1,0x000),
    DN(___,0,0x000),
    DN(___,0,0x000),
    DN(___,0,0x000),
    DN(___,0,0x000),
    DN(___,0,0x000),
    DN(___,0,0x000),
    DN(___,0,0x000),
    DN(___,0,0x000),
    DN(___,0,0x000),
    DN(___,0,0x000),
    DN(___,0,0x000),
    DN(___,0,0x000),
    DN(___,0,0x000),
    DN(___,0,0x000),
    DN(___,0,0x000),
    DN(___,0,0x000),
    DN(___,0,0x000),
    DN(___,0,0x000),
    DN(___,0,0x000),
    DN(Gs3,1,0x320),
    DN(___,0,0x320),
    DN(___,0,0x320),
    DN(___,0,0x320),
    DN(Gs3,1,0x000),
    DN(___,0,0x000),
    DN(___,0,0x000),
    DN(___,0,0x000),
    DN(___,0,0x000),
    DN(___,0,0x000),
    DN(___,0,0x000),
    DN(___,0,0x000),
    DN(___,0,0x000),
    DN(___,0,0x000),
    DN(___,0,0x000),
    DN(___,0,0x000),
    DN(___,0,0x000),
    DN(___,0,0x000),
    DN(___,0,0x000),
    DN(___,0,0x000),
    DN(___,0,0x000),
    DN(___,0,0x000),
    DN(___,0,0x000),
    DN(___,0,0x000),
    DN(___,0,0x000),
    DN(___,0,0x000),
    DN(___,0,0x000),
    DN(___,0,0x000),
    DN(___,0,0x000),
    DN(___,0,0x000),
    DN(___,0,0x000),
    DN(___,0,0x000),
    DN(___,0,0x000),
    DN(___,0,0x000),
    DN(___,0,0x000),
    DN(___,0,0x000),
    DN(___,0,0x000),
    DN(___,0,0x000),
    DN(___,0,0x000),
    DN(___,0,0x000),
    DN(___,0,0x000),
    DN(___,0,0x000),
    DN(___,0,0x000),
    DN(___,0,0x000),
};
static const unsigned char P25[] = {
    DN(___,0,0x000),
    DN(___,0,0x000),
    DN(___,0,0x000),
    DN(C_5,6,0x000),
    DN(___,0,0x000),
    DN(G_5,6,0x000),
    DN(___,0,0x000),
    DN(B_5,6,0x000),
    DN(___,0,0x000),
    DN(E_6,6,0x000),
    DN(___,0,0x000),
    DN(G_6,6,0x000),
    DN(___,0,0x000),
    DN(B_6,6,0x000),
    DN(___,0,0x000),
    DN(As4,6,0x000),
    DN(___,0,0x000),
    DN(F_5,6,0x000),
    DN(___,0,0x000),
    DN(A_5,6,0x000),
    DN(___,0,0x000),
    DN(D_6,6,0x000),
    DN(___,0,0x000),
    DN(F_6,6,0x000),
    DN(___,0,0x000),
    DN(A_6,6,0x000),
    DN(___,0,0x000),
    DN(C_5,6,0x000),
    DN(___,0,0x000),
    DN(G_5,6,0x000),
    DN(___,0,0x000),
    DN(B_5,6,0x000),
    DN(___,0,0x000),
    DN(E_6,6,0x000),
    DN(___,0,0x000),
    DN(G_6,6,0x000),
    DN(___,0,0x000),
    DN(B_6,6,0x000),
    DN(___,0,0x000),
    DN(As4,6,0x000),
    DN(___,0,0x000),
    DN(F_5,6,0x000),
    DN(___,0,0x000),
    DN(A_5,6,0x000),
    DN(___,0,0x000),
    DN(D_6,6,0x000),
    DN(___,0,0x000),
    DN(F_6,6,0x000),
    DN(___,0,0x000),
    DN(___,0,0x000),
    DN(___,0,0x000),
    DN(___,0,0x000),
    DN(___,0,0x000),
    DN(___,0,0x000),
    DN(___,0,0x000),
    DN(___,0,0x000),
    DN(___,0,0x000),
    DN(___,0,0x000),
    DN(___,0,0x000),
    DN(___,0,0x000),
    DN(___,0,0x000),
    DN(___,0,0x000),
    DN(___,0,0x000),
    DN(___,0,0x000),
};
static const unsigned char P26[] = {
    DN(C_5,5,0x000),
    DN(___,0,0x000),
    DN(G_5,5,0x000),
    DN(___,0,0x000),
    DN(B_5,5,0x000),
    DN(___,0,0x000),
    DN(E_6,5,0x000),
    DN(___,0,0x000),
    DN(G_6,5,0x000),
    DN(___,0,0x000),
    DN(B_6,5,0x000),
    DN(___,0,0x000),
    DN(As4,5,0x000),
    DN(___,0,0x000),
    DN(F_5,5,0x000),
    DN(___,0,0x000),
    DN(A_5,5,0x000),
    DN(___,0,0x000),
    DN(D_6,5,0x000),
    DN(___,0,0x000),
    DN(F_6,5,0x000),
    DN(___,0,0x000),
    DN(A_6,5,0x000),
    DN(___,0,0x000),
    DN(C_5,5,0x000),
    DN(___,0,0x000),
    DN(G_5,5,0x000),
    DN(___,0,0x000),
    DN(B_5,5,0x000),
    DN(___,0,0x000),
    DN(E_6,5,0x000),
    DN(___,0,0x000),
    DN(G_6,5,0x000),
    DN(___,0,0x000),
    DN(B_6,5,0x000),
    DN(___,0,0x000),
    DN(As4,5,0x000),
    DN(___,0,0x000),
    DN(F_5,5,0x000),
    DN(___,0,0x000),
    DN(A_5,5,0x000),
    DN(___,0,0x000),
    DN(D_6,5,0x000),
    DN(___,0,0x000),
    DN(F_6,5,0x000),
    DN(___,0,0x000),
    DN(A_6,5,0x000),
    DN(___,0,0x000),
    DN(___,0,0x000),
    DN(___,0,0x000),
    DN(___,0,0x000),
    DN(___,0,0x000),
    DN(___,0,0x000),
    DN(___,0,0x000),
    DN(___,0,0x000),
    DN(___,0,0x000),
    DN(___,0,0x000),
    DN(___,0,0x000),
    DN(___,0,0x000),
    DN(___,0,0x000),
    DN(___,0,0x000),
    DN(___,0,0x000),
    DN(___,0,0x000),
    DN(___,0,0x000),
};
static const unsigned char P27[] = {
    DN(C_5,2,0x000),
    DN(C_5,2,0xC00),
    DN(___,0,0x000),
    DN(___,0,0x000),
    DN(G_6,2,0xC02),
    DN(___,0,0x000),
    DN(___,0,0x000),
    DN(___,0,0x000),
    DN(C_7,2,0xC02),
    DN(___,0,0x000),
    DN(___,0,0x000),
    DN(___,0,0x000),
    DN(As4,2,0x000),
    DN(As4,2,0xC00),
    DN(___,0,0x000),
    DN(___,0,0x000),
    DN(F_6,2,0xC02),
    DN(___,0,0x000),
    DN(___,0,0x000),
    DN(___,0,0x000),
    DN(As6,2,0xC02),
    DN(___,0,0x000),
    DN(___,0,0x000),
    DN(___,0,0x000),
    DN(C_5,2,0x000),
    DN(C_5,2,0xC00),
    DN(___,0,0x000),
    DN(___,0,0x000),
    DN(G_6,2,0xC02),
    DN(___,0,0x000),
    DN(___,0,0x000),
    DN(___,0,0x000),
    DN(C_7,2,0xC02),
    DN(___,0,0x000),
    DN(___,0,0x000),
    DN(___,0,0x000),
    DN(As4,2,0x000),
    DN(As4,2,0xC00),
    DN(___,0,0x000),
    DN(___,0,0x000),
    DN(F_6,2,0xC02),
    DN(___,0,0x000),
    DN(___,0,0x000),
    DN(___,0,0x000),
    DN(As6,2,0xC02),
    DN(___,0,0x000),
    DN(___,0,0x000),
    DN(___,0,0xD01),
    DN(___,0,0x000),
    DN(___,0,0x000),
    DN(___,0,0x000),
    DN(___,0,0x000),
    DN(___,0,0x000),
    DN(___,0,0x000),
    DN(___,0,0x000),
    DN(___,0,0x000),
    DN(___,0,0x000),
    DN(___,0,0x000),
    DN(___,0,0x000),
    DN(___,0,0x000),
    DN(___,0,0x000),
    DN(___,0,0x000),
    DN(___,0,0x000),
    DN(___,0,0x000),
};
static const unsigned char P29[] = {
    DN(C_5,4,0x000),
    DN(___,0,0x000),
    DN(___,0,0x000),
    DN(___,0,0x000),
    DN(___,0,0x000),
    DN(___,0,0x000),
    DN(___,0,0x000),
    DN(___,0,0x000),
    DN(___,0,0x000),
    DN(___,0,0x000),
    DN(___,0,0x000),
    DN(___,0,0x000),
    DN(___,0,0x000),
    DN(___,0,0x000),
    DN(___,0,0x000),
    DN(___,0,0x000),
    DN(___,0,0x000),
    DN(___,0,0x000),
    DN(___,0,0x000),
    DN(___,0,0x000),
    DN(C_5,4,0xC02),
    DN(___,0,0x000),
    DN(___,0,0x000),
    DN(___,0,0x000),
    DN(As4,4,0x000),
    DN(___,0,0x000),
    DN(___,0,0x000),
    DN(___,0,0x000),
    DN(___,0,0x000),
    DN(___,0,0x000),
    DN(___,0,0x000),
    DN(___,0,0x000),
    DN(___,0,0x000),
    DN(___,0,0x000),
    DN(___,0,0x000),
    DN(___,0,0x000),
    DN(___,0,0x000),
    DN(___,0,0x000),
    DN(___,0,0x000),
    DN(___,0,0x000),
    DN(___,0,0x000),
    DN(___,0,0x000),
    DN(___,0,0x000),
    DN(___,0,0x000),
    DN(As4,4,0xC02),
    DN(___,0,0x000),
    DN(___,0,0x000),
    DN(___,0,0x000),
    DN(___,0,0x000),
    DN(___,0,0x000),
    DN(___,0,0x000),
    DN(___,0,0x000),
    DN(___,0,0x000),
    DN(___,0,0x000),
    DN(___,0,0x000),
    DN(___,0,0x000),
    DN(___,0,0x000),
    DN(___,0,0x000),
    DN(___,0,0x000),
    DN(___,0,0x000),
    DN(___,0,0x000),
    DN(___,0,0x000),
    DN(___,0,0x000),
    DN(___,0,0x000),
};
static const unsigned char P30[] = {
    DN(Gs7,5,0x000),
    DN(G_7,5,0x000),
    DN(Ds7,5,0x000),
    DN(C_7,5,0x000),
    DN(Ds7,5,0x000),
    DN(C_7,5,0x000),
    DN(Gs6,5,0x000),
    DN(G_6,5,0x000),
    DN(Gs6,5,0x000),
    DN(G_6,5,0x000),
    DN(Ds6,5,0x000),
    DN(C_6,5,0x000),
    DN(Ds6,5,0x000),
    DN(C_6,5,0x000),
    DN(Gs5,5,0x000),
    DN(G_5,5,0x000),
    DN(Gs5,5,0x000),
    DN(G_5,5,0x000),
    DN(Ds5,5,0x000),
    DN(C_5,5,0x000),
    DN(Ds5,5,0x000),
    DN(C_5,5,0x000),
    DN(Gs4,5,0x000),
    DN(G_4,5,0x000),
    DN(Fs7,5,0x000),
    DN(F_7,5,0x000),
    DN(Cs7,5,0x000),
    DN(As6,5,0x000),
    DN(Cs7,5,0x000),
    DN(As6,5,0x000),
    DN(Fs6,5,0x000),
    DN(F_6,5,0x000),
    DN(Fs6,5,0x000),
    DN(F_6,5,0x000),
    DN(Cs6,5,0x000),
    DN(As5,5,0x000),
    DN(Cs6,5,0x000),
    DN(As5,5,0x000),
    DN(Fs5,5,0x000),
    DN(F_5,5,0x000),
    DN(Fs5,5,0x000),
    DN(F_5,5,0x000),
    DN(Cs5,5,0x000),
    DN(As4,5,0x000),
    DN(Cs5,5,0x000),
    DN(As4,5,0x000),
    DN(Fs4,5,0x000),
    DN(F_4,5,0x000),
    DN(___,0,0x000),
    DN(___,0,0x000),
    DN(___,0,0x000),
    DN(___,0,0x000),
    DN(___,0,0x000),
    DN(___,0,0x000),
    DN(___,0,0x000),
    DN(___,0,0x000),
    DN(___,0,0x000),
    DN(___,0,0x000),
    DN(___,0,0x000),
    DN(___,0,0x000),
    DN(___,0,0x000),
    DN(___,0,0x000),
    DN(___,0,0x000),
    DN(___,0,0x000),
};
static const unsigned char P31[] = {
    DN(Gs4,2,0x000),
    DN(___,0,0x000),
    DN(___,0,0x000),
    DN(___,0,0x000),
    DN(___,0,0x000),
    DN(___,0,0x000),
    DN(___,0,0x000),
    DN(___,0,0x000),
    DN(___,0,0x000),
    DN(___,0,0x000),
    DN(___,0,0x000),
    DN(___,0,0x000),
    DN(___,0,0x000),
    DN(___,0,0x000),
    DN(___,0,0x000),
    DN(___,0,0x000),
    DN(___,0,0x000),
    DN(___,0,0x000),
    DN(___,0,0x000),
    DN(___,0,0x000),
    DN(Gs4,2,0xC02),
    DN(___,0,0x000),
    DN(___,0,0x000),
    DN(___,0,0x000),
    DN(Fs4,2,0x000),
    DN(___,0,0x000),
    DN(___,0,0x000),
    DN(___,0,0x000),
    DN(___,0,0x000),
    DN(___,0,0x000),
    DN(___,0,0x000),
    DN(___,0,0x000),
    DN(___,0,0x000),
    DN(___,0,0x000),
    DN(___,0,0x000),
    DN(___,0,0x000),
    DN(___,0,0x000),
    DN(___,0,0x000),
    DN(___,0,0x000),
    DN(___,0,0x000),
    DN(___,0,0x000),
    DN(___,0,0x000),
    DN(___,0,0x000),
    DN(___,0,0x000),
    DN(Fs4,2,0xC02),
    DN(___,0,0x000),
    DN(___,0,0x000),
    DN(___,0,0xD01),
    DN(___,0,0x000),
    DN(___,0,0x000),
    DN(___,0,0x000),
    DN(___,0,0x000),
    DN(___,0,0x000),
    DN(___,0,0x000),
    DN(___,0,0x000),
    DN(___,0,0x000),
    DN(___,0,0x000),
    DN(___,0,0x000),
    DN(___,0,0x000),
    DN(___,0,0x000),
    DN(___,0,0x000),
    DN(___,0,0x000),
    DN(___,0,0x000),
    DN(___,0,0x000),
};
static const unsigned char P33[] = {
    DN(C_5,4,0xC01),
    DN(___,0,0x000),
    DN(___,0,0x000),
    DN(___,0,0x000),
    DN(C_5,4,0xC02),
    DN(___,0,0x000),
    DN(___,0,0x000),
    DN(___,0,0x000),
    DN(C_5,4,0xC03),
    DN(___,0,0x000),
    DN(___,0,0x000),
    DN(___,0,0x000),
    DN(C_5,4,0xC04),
    DN(___,0,0x000),
    DN(___,0,0x000),
    DN(___,0,0x000),
    DN(C_5,4,0xC05),
    DN(___,0,0x000),
    DN(___,0,0x000),
    DN(___,0,0x000),
    DN(C_5,4,0xC06),
    DN(___,0,0x000),
    DN(___,0,0x000),
    DN(___,0,0x000),
    DN(C_5,4,0xC08),
    DN(___,0,0xA03),
    DN(___,0,0xA03),
    DN(___,0,0xA03),
    DN(___,0,0xA03),
    DN(___,0,0x000),
    DN(___,0,0x000),
    DN(___,0,0x000),
    DN(___,0,0x000),
    DN(___,0,0x000),
    DN(___,0,0x000),
    DN(___,0,0x000),
    DN(___,0,0x000),
    DN(___,0,0x000),
    DN(___,0,0x000),
    DN(___,0,0x000),
    DN(___,0,0x000),
    DN(___,0,0x000),
    DN(___,0,0x000),
    DN(___,0,0x000),
    DN(___,0,0x000),
    DN(___,0,0x000),
    DN(___,0,0x000),
    DN(___,0,0x000),
    DN(___,0,0x000),
    DN(___,0,0x000),
    DN(___,0,0x000),
    DN(___,0,0x000),
    DN(___,0,0x000),
    DN(___,0,0x000),
    DN(___,0,0x000),
    DN(___,0,0x000),
    DN(___,0,0x000),
    DN(___,0,0x000),
    DN(___,0,0x000),
    DN(___,0,0x000),
    DN(___,0,0x000),
    DN(___,0,0x000),
    DN(___,0,0x000),
    DN(___,0,0x000),
};
static const unsigned char P34[] = {
    DN(G_4,4,0xC01),
    DN(___,0,0x000),
    DN(___,0,0x000),
    DN(___,0,0x000),
    DN(G_4,4,0xC02),
    DN(___,0,0x000),
    DN(___,0,0x000),
    DN(___,0,0x000),
    DN(G_4,4,0xC03),
    DN(___,0,0x000),
    DN(___,0,0x000),
    DN(___,0,0x000),
    DN(G_4,4,0xC04),
    DN(___,0,0x000),
    DN(___,0,0x000),
    DN(___,0,0x000),
    DN(G_4,4,0xC05),
    DN(___,0,0x000),
    DN(___,0,0x000),
    DN(___,0,0x000),
    DN(G_4,4,0xC06),
    DN(___,0,0x000),
    DN(___,0,0x000),
    DN(___,0,0x000),
    DN(G_4,4,0xC08),
    DN(___,0,0xA03),
    DN(___,0,0xA03),
    DN(___,0,0xA03),
    DN(___,0,0xA03),
    DN(___,0,0x000),
    DN(___,0,0x000),
    DN(___,0,0x000),
    DN(___,0,0x000),
    DN(___,0,0x000),
    DN(___,0,0x000),
    DN(___,0,0x000),
    DN(___,0,0x000),
    DN(___,0,0x000),
    DN(___,0,0x000),
    DN(___,0,0x000),
    DN(___,0,0x000),
    DN(___,0,0x000),
    DN(___,0,0x000),
    DN(___,0,0x000),
    DN(___,0,0x000),
    DN(___,0,0x000),
    DN(___,0,0x000),
    DN(___,0,0x000),
    DN(___,0,0x000),
    DN(___,0,0x000),
    DN(___,0,0x000),
    DN(___,0,0x000),
    DN(___,0,0x000),
    DN(___,0,0x000),
    DN(___,0,0x000),
    DN(___,0,0x000),
    DN(___,0,0x000),
    DN(___,0,0x000),
    DN(___,0,0x000),
    DN(___,0,0x000),
    DN(___,0,0x000),
    DN(___,0,0x000),
    DN(___,0,0x000),
    DN(___,0,0x000),
};
static const unsigned char P35[] = {
    DN(Gs4,2,0x000),
    DN(___,0,0x000),
    DN(___,0,0x000),
    DN(___,0,0x000),
    DN(___,0,0x000),
    DN(___,0,0x000),
    DN(___,0,0x000),
    DN(___,0,0x000),
    DN(___,0,0x000),
    DN(___,0,0x000),
    DN(___,0,0x000),
    DN(___,0,0x000),
    DN(___,0,0x000),
    DN(___,0,0x000),
    DN(___,0,0x000),
    DN(___,0,0x000),
    DN(___,0,0x000),
    DN(___,0,0x000),
    DN(___,0,0x000),
    DN(___,0,0x000),
    DN(___,0,0x000),
    DN(___,0,0x000),
    DN(___,0,0x000),
    DN(___,0,0x000),
    DN(Gs4,2,0x000),
    DN(___,0,0x000),
    DN(C_5,2,0xC02),
    DN(___,0,0x000),
    DN(Ds5,2,0xC02),
    DN(___,0,0x000),
    DN(Gs5,2,0xC02),
    DN(___,0,0x000),
    DN(As5,2,0xC02),
    DN(___,0,0x000),
    DN(Gs5,2,0xC02),
    DN(___,0,0x000),
    DN(G_7,2,0xC02),
    DN(___,0,0x000),
    DN(F_7,2,0xC02),
    DN(Ds7,2,0xC02),
    DN(D_7,2,0xC02),
    DN(___,0,0x000),
    DN(Ds7,2,0xC02),
    DN(___,0,0x000),
    DN(D_7,2,0xC02),
    DN(___,0,0x000),
    DN(As6,2,0xC02),
    DN(___,0,0xD01),
    DN(___,0,0x000),
    DN(___,0,0x000),
    DN(___,0,0x000),
    DN(___,0,0x000),
    DN(___,0,0x000),
    DN(___,0,0x000),
    DN(___,0,0x000),
    DN(___,0,0x000),
    DN(___,0,0x000),
    DN(___,0,0x000),
    DN(___,0,0x000),
    DN(___,0,0x000),
    DN(___,0,0x000),
    DN(___,0,0x000),
    DN(___,0,0x000),
    DN(___,0,0x000),
};

static const unsigned char* const order1[] = {P0,P0,P0,P0,P17,P21,P25,P29,P25,P33};
static const unsigned char* const order2[] = {P1,P1,P13,P9,P18,P22,P26,P30,P26,P34};
static const unsigned char* const order3[] = {P6,P2,P6,P6,P19,P23,P27,P31,P27,P35};
static const unsigned char* const order4[] = {P3,P3,P3,P3,P3,P3,P3,P3,P3,P3};

static const hUGEDutyInstr_t duty_instruments[] = {
    {8,0,113,0,128},
    {8,0,37,0,128},
    {8,128,96,0,128},
    {8,192,96,0,128},
    {8,128,145,0,128},
    {8,128,23,0,128},
};
static const hUGEWaveInstr_t wave_instruments[] = {
    {0,32,0,0,128},
    {0,32,1,0,128},
};

static const unsigned char waves[] = {
    102,102,50,16,18,70,138,205,238,237,203,169,135,101,85,85,
    138,189,239,255,255,254,219,168,117,66,16,0,0,1,36,87,
};

const hUGESong_t boatship = {5, &order_cnt, order1, order2, order3,order4, duty_instruments, wave_instruments, NULL, NULL, waves};
