#include "hUGEDriver.h"
#include <stddef.h>

static const unsigned char order_cnt = 12;

static const unsigned char P1[] = {
    DN(G_5,2,0xC0A),
    DN(___,0,0x000),
    DN(___,0,0x000),
    DN(___,0,0xC02),
    DN(E_5,2,0xC0A),
    DN(___,0,0x000),
    DN(___,0,0x000),
    DN(___,0,0xC02),
    DN(G_5,2,0xC0A),
    DN(___,0,0x000),
    DN(___,0,0x000),
    DN(___,0,0xC02),
    DN(C_6,2,0xC0A),
    DN(___,0,0x000),
    DN(___,0,0x000),
    DN(___,0,0x000),
    DN(___,0,0x000),
    DN(___,0,0x000),
    DN(___,0,0xC02),
    DN(___,0,0x000),
    DN(D_6,2,0xC0A),
    DN(___,0,0x000),
    DN(___,0,0x000),
    DN(___,0,0x000),
    DN(___,0,0x000),
    DN(___,0,0x000),
    DN(___,0,0xC02),
    DN(___,0,0x000),
    DN(G_5,2,0xC0A),
    DN(___,0,0x000),
    DN(___,0,0x000),
    DN(___,0,0x000),
    DN(___,0,0x000),
    DN(___,0,0x000),
    DN(___,0,0x000),
    DN(___,0,0x000),
    DN(___,0,0x000),
    DN(___,0,0x000),
    DN(___,0,0x000),
    DN(___,0,0x000),
    DN(___,0,0x000),
    DN(___,0,0x000),
    DN(___,0,0x000),
    DN(___,0,0x000),
    DN(___,0,0x000),
    DN(___,0,0x000),
    DN(___,0,0xC02),
    DN(___,0,0x000),
    DN(E_5,2,0xC0A),
    DN(___,0,0x000),
    DN(___,0,0x000),
    DN(___,0,0xC02),
    DN(F_5,2,0xC0A),
    DN(___,0,0x000),
    DN(___,0,0x000),
    DN(___,0,0xC02),
    DN(G_5,2,0xC0A),
    DN(___,0,0x000),
    DN(___,0,0x000),
    DN(___,0,0x000),
    DN(___,0,0x000),
    DN(___,0,0x000),
    DN(___,0,0xC02),
    DN(___,0,0x000),
};
static const unsigned char P2[] = {
    DN(E_5,3,0xC06),
    DN(___,0,0x000),
    DN(___,0,0x000),
    DN(___,0,0x000),
    DN(___,0,0xC04),
    DN(___,0,0x000),
    DN(___,0,0xC00),
    DN(___,0,0x000),
    DN(E_5,3,0xC06),
    DN(___,0,0x000),
    DN(___,0,0x000),
    DN(___,0,0x000),
    DN(___,0,0xC04),
    DN(___,0,0x000),
    DN(___,0,0xC00),
    DN(___,0,0x000),
    DN(E_5,3,0xC06),
    DN(___,0,0x000),
    DN(___,0,0x000),
    DN(___,0,0x000),
    DN(___,0,0xC04),
    DN(___,0,0x000),
    DN(___,0,0xC00),
    DN(___,0,0x000),
    DN(E_5,3,0xC06),
    DN(___,0,0x000),
    DN(___,0,0x000),
    DN(___,0,0x000),
    DN(___,0,0xC04),
    DN(___,0,0x000),
    DN(___,0,0xC00),
    DN(___,0,0x000),
    DN(D_5,3,0xC06),
    DN(___,0,0x000),
    DN(___,0,0x000),
    DN(___,0,0x000),
    DN(___,0,0xC04),
    DN(___,0,0x000),
    DN(___,0,0xC00),
    DN(___,0,0x000),
    DN(D_5,3,0xC06),
    DN(___,0,0x000),
    DN(___,0,0x000),
    DN(___,0,0x000),
    DN(___,0,0xC04),
    DN(___,0,0x000),
    DN(___,0,0xC00),
    DN(___,0,0x000),
    DN(D_5,3,0xC06),
    DN(___,0,0x000),
    DN(___,0,0x000),
    DN(___,0,0x000),
    DN(___,0,0xC04),
    DN(___,0,0x000),
    DN(___,0,0xC00),
    DN(___,0,0x000),
    DN(D_5,3,0xC06),
    DN(___,0,0x000),
    DN(___,0,0x000),
    DN(___,0,0x000),
    DN(___,0,0xC04),
    DN(___,0,0x000),
    DN(___,0,0xC00),
    DN(___,0,0x000),
};
static const unsigned char P3[] = {
    DN(C_5,3,0xC06),
    DN(___,0,0x000),
    DN(___,0,0x000),
    DN(___,0,0x000),
    DN(___,0,0xC03),
    DN(___,0,0x000),
    DN(___,0,0xC00),
    DN(___,0,0x000),
    DN(C_5,3,0xC06),
    DN(___,0,0x000),
    DN(___,0,0x000),
    DN(___,0,0x000),
    DN(___,0,0xC03),
    DN(___,0,0x000),
    DN(___,0,0xC00),
    DN(___,0,0x000),
    DN(C_5,3,0xC06),
    DN(___,0,0x000),
    DN(___,0,0x000),
    DN(___,0,0x000),
    DN(___,0,0xC03),
    DN(___,0,0x000),
    DN(___,0,0xC00),
    DN(___,0,0x000),
    DN(C_5,3,0xC06),
    DN(___,0,0x000),
    DN(___,0,0x000),
    DN(___,0,0x000),
    DN(___,0,0xC03),
    DN(___,0,0x000),
    DN(___,0,0xC00),
    DN(___,0,0x000),
    DN(B_4,3,0xC06),
    DN(___,0,0x000),
    DN(___,0,0x000),
    DN(___,0,0x000),
    DN(___,0,0xC03),
    DN(___,0,0x000),
    DN(___,0,0xC00),
    DN(___,0,0x000),
    DN(B_4,3,0xC06),
    DN(___,0,0x000),
    DN(___,0,0x000),
    DN(___,0,0x000),
    DN(___,0,0xC03),
    DN(___,0,0x000),
    DN(___,0,0xC00),
    DN(___,0,0x000),
    DN(B_4,3,0xC06),
    DN(___,0,0x000),
    DN(___,0,0x000),
    DN(___,0,0x000),
    DN(___,0,0xC03),
    DN(___,0,0x000),
    DN(___,0,0xC00),
    DN(___,0,0x000),
    DN(B_4,3,0xC06),
    DN(___,0,0x000),
    DN(___,0,0x000),
    DN(___,0,0x000),
    DN(___,0,0xC03),
    DN(___,0,0x000),
    DN(___,0,0xC00),
    DN(___,0,0x000),
};
static const unsigned char P4[] = {
    DN(___,0,0xF05),
    DN(___,0,0x000),
    DN(___,0,0x000),
    DN(___,0,0x000),
    DN(___,0,0xF03),
    DN(___,0,0x000),
    DN(___,0,0x000),
    DN(___,0,0x000),
    DN(___,0,0xF05),
    DN(___,0,0x000),
    DN(___,0,0x000),
    DN(___,0,0x000),
    DN(___,0,0xF03),
    DN(___,0,0x000),
    DN(___,0,0x000),
    DN(___,0,0x000),
    DN(___,0,0xF05),
    DN(___,0,0x000),
    DN(___,0,0x000),
    DN(___,0,0x000),
    DN(___,0,0xF03),
    DN(___,0,0x000),
    DN(___,0,0x000),
    DN(___,0,0x000),
    DN(___,0,0xF05),
    DN(___,0,0x000),
    DN(___,0,0x000),
    DN(___,0,0x000),
    DN(___,0,0xF03),
    DN(___,0,0x000),
    DN(___,0,0x000),
    DN(___,0,0x000),
    DN(___,0,0xF05),
    DN(___,0,0x000),
    DN(___,0,0x000),
    DN(___,0,0x000),
    DN(___,0,0xF03),
    DN(___,0,0x000),
    DN(___,0,0x000),
    DN(___,0,0x000),
    DN(___,0,0xF05),
    DN(___,0,0x000),
    DN(___,0,0x000),
    DN(___,0,0x000),
    DN(___,0,0xF03),
    DN(___,0,0x000),
    DN(___,0,0x000),
    DN(___,0,0x000),
    DN(___,0,0xF05),
    DN(___,0,0x000),
    DN(___,0,0x000),
    DN(___,0,0x000),
    DN(___,0,0xF03),
    DN(___,0,0x000),
    DN(___,0,0x000),
    DN(___,0,0x000),
    DN(___,0,0xF05),
    DN(___,0,0x000),
    DN(___,0,0x000),
    DN(___,0,0x000),
    DN(___,0,0xF03),
    DN(___,0,0x000),
    DN(___,0,0x000),
    DN(___,0,0x000),
};
static const unsigned char P5[] = {
    DN(G_5,2,0xC0A),
    DN(___,0,0x000),
    DN(___,0,0x000),
    DN(___,0,0x000),
    DN(___,0,0x000),
    DN(___,0,0x000),
    DN(___,0,0xC02),
    DN(___,0,0x000),
    DN(F_5,2,0xC0A),
    DN(___,0,0x000),
    DN(___,0,0x000),
    DN(___,0,0x000),
    DN(___,0,0x000),
    DN(___,0,0x000),
    DN(___,0,0xC02),
    DN(___,0,0x000),
    DN(E_5,2,0xC0A),
    DN(___,0,0x000),
    DN(___,0,0x000),
    DN(___,0,0xC02),
    DN(F_5,2,0xC0A),
    DN(___,0,0x000),
    DN(___,0,0x000),
    DN(___,0,0xC02),
    DN(E_5,2,0xC0A),
    DN(___,0,0x000),
    DN(___,0,0x000),
    DN(___,0,0xC02),
    DN(D_5,2,0xC0A),
    DN(___,0,0x000),
    DN(___,0,0x000),
    DN(___,0,0x000),
    DN(___,0,0x000),
    DN(___,0,0x000),
    DN(___,0,0x000),
    DN(___,0,0x000),
    DN(___,0,0x000),
    DN(___,0,0x000),
    DN(___,0,0x000),
    DN(___,0,0x000),
    DN(___,0,0x000),
    DN(___,0,0x000),
    DN(___,0,0x000),
    DN(___,0,0x000),
    DN(___,0,0x000),
    DN(___,0,0x000),
    DN(___,0,0xC02),
    DN(___,0,0x000),
    DN(E_5,2,0xC0A),
    DN(___,0,0x000),
    DN(___,0,0x000),
    DN(___,0,0xC02),
    DN(D_5,2,0xC0A),
    DN(___,0,0x000),
    DN(___,0,0x000),
    DN(___,0,0xC02),
    DN(C_5,2,0xC0A),
    DN(___,0,0x000),
    DN(___,0,0x000),
    DN(___,0,0xC02),
    DN(B_4,2,0xC0A),
    DN(___,0,0x000),
    DN(___,0,0x000),
    DN(___,0,0xC02),
};
static const unsigned char P6[] = {
    DN(C_5,3,0xC06),
    DN(___,0,0x000),
    DN(___,0,0x000),
    DN(___,0,0x000),
    DN(___,0,0xC04),
    DN(___,0,0x000),
    DN(___,0,0xC00),
    DN(___,0,0x000),
    DN(C_5,3,0xC06),
    DN(___,0,0x000),
    DN(___,0,0x000),
    DN(___,0,0x000),
    DN(___,0,0xC04),
    DN(___,0,0x000),
    DN(___,0,0xC00),
    DN(___,0,0x000),
    DN(C_5,3,0xC06),
    DN(___,0,0x000),
    DN(___,0,0x000),
    DN(___,0,0x000),
    DN(D_5,3,0xC04),
    DN(___,0,0x000),
    DN(___,0,0xC00),
    DN(___,0,0x000),
    DN(C_5,3,0xC06),
    DN(___,0,0x000),
    DN(___,0,0x000),
    DN(___,0,0x000),
    DN(B_4,3,0xC04),
    DN(___,0,0x000),
    DN(___,0,0xC00),
    DN(___,0,0x000),
    DN(B_4,3,0xC06),
    DN(___,0,0x000),
    DN(___,0,0x000),
    DN(___,0,0x000),
    DN(___,0,0xC04),
    DN(___,0,0x000),
    DN(___,0,0xC00),
    DN(___,0,0x000),
    DN(B_4,3,0xC06),
    DN(___,0,0x000),
    DN(___,0,0x000),
    DN(___,0,0x000),
    DN(___,0,0xC04),
    DN(___,0,0x000),
    DN(___,0,0xC00),
    DN(___,0,0x000),
    DN(C_5,3,0xC06),
    DN(___,0,0x000),
    DN(___,0,0x000),
    DN(___,0,0x000),
    DN(___,0,0xC04),
    DN(___,0,0x000),
    DN(___,0,0xC00),
    DN(___,0,0x000),
    DN(D_5,3,0xC06),
    DN(___,0,0x000),
    DN(___,0,0x000),
    DN(___,0,0x000),
    DN(___,0,0xC04),
    DN(___,0,0x000),
    DN(___,0,0xC00),
    DN(___,0,0x000),
};
static const unsigned char P7[] = {
    DN(A_4,3,0xC06),
    DN(___,0,0x000),
    DN(___,0,0x000),
    DN(___,0,0x000),
    DN(___,0,0xC03),
    DN(___,0,0x000),
    DN(___,0,0xC00),
    DN(___,0,0x000),
    DN(A_4,3,0xC06),
    DN(___,0,0x000),
    DN(___,0,0x000),
    DN(___,0,0x000),
    DN(___,0,0xC03),
    DN(___,0,0x000),
    DN(___,0,0xC00),
    DN(___,0,0x000),
    DN(A_4,3,0xC06),
    DN(___,0,0x000),
    DN(___,0,0x000),
    DN(___,0,0x000),
    DN(___,0,0xC03),
    DN(___,0,0x000),
    DN(___,0,0xC00),
    DN(___,0,0x000),
    DN(A_4,3,0xC06),
    DN(___,0,0x000),
    DN(___,0,0x000),
    DN(___,0,0x000),
    DN(___,0,0xC03),
    DN(___,0,0x000),
    DN(___,0,0xC00),
    DN(___,0,0x000),
    DN(E_4,3,0xC06),
    DN(___,0,0x000),
    DN(___,0,0x000),
    DN(___,0,0x000),
    DN(___,0,0xC03),
    DN(___,0,0x000),
    DN(___,0,0xC00),
    DN(___,0,0x000),
    DN(E_4,3,0xC06),
    DN(___,0,0x000),
    DN(___,0,0x000),
    DN(___,0,0x000),
    DN(___,0,0xC03),
    DN(___,0,0x000),
    DN(___,0,0xC00),
    DN(___,0,0x000),
    DN(E_4,3,0xC06),
    DN(___,0,0x000),
    DN(___,0,0x000),
    DN(___,0,0x000),
    DN(___,0,0xC03),
    DN(___,0,0x000),
    DN(___,0,0xC00),
    DN(___,0,0x000),
    DN(E_4,3,0xC06),
    DN(___,0,0x000),
    DN(___,0,0x000),
    DN(___,0,0x000),
    DN(___,0,0xC03),
    DN(___,0,0x000),
    DN(___,0,0xC00),
    DN(___,0,0x000),
};
static const unsigned char P8[] = {
    DN(C_5,2,0xC0A),
    DN(___,0,0x000),
    DN(___,0,0x000),
    DN(___,0,0xC02),
    DN(G_4,2,0xC0A),
    DN(___,0,0x000),
    DN(___,0,0x000),
    DN(___,0,0xC02),
    DN(C_5,2,0xC0A),
    DN(___,0,0x000),
    DN(___,0,0x000),
    DN(___,0,0xC02),
    DN(E_5,2,0xC0A),
    DN(___,0,0x000),
    DN(___,0,0x000),
    DN(___,0,0x000),
    DN(___,0,0x000),
    DN(___,0,0x000),
    DN(___,0,0xC02),
    DN(___,0,0x000),
    DN(A_5,2,0xC0A),
    DN(___,0,0x000),
    DN(___,0,0x000),
    DN(___,0,0x000),
    DN(___,0,0x000),
    DN(___,0,0x000),
    DN(___,0,0xC02),
    DN(___,0,0x000),
    DN(B_5,2,0xC0A),
    DN(___,0,0x000),
    DN(___,0,0x000),
    DN(___,0,0xC02),
    DN(C_6,2,0xC0A),
    DN(___,0,0x000),
    DN(___,0,0x000),
    DN(___,0,0xC02),
    DN(D_6,2,0xC0A),
    DN(___,0,0x000),
    DN(___,0,0x000),
    DN(___,0,0xC02),
    DN(C_6,2,0xC0A),
    DN(___,0,0x000),
    DN(___,0,0x000),
    DN(___,0,0xC02),
    DN(G_5,2,0xC0A),
    DN(___,0,0x000),
    DN(___,0,0x000),
    DN(___,0,0x000),
    DN(___,0,0x000),
    DN(___,0,0x000),
    DN(___,0,0xC02),
    DN(___,0,0x000),
    DN(B_5,2,0xC0A),
    DN(___,0,0x000),
    DN(___,0,0x000),
    DN(___,0,0x000),
    DN(___,0,0x000),
    DN(___,0,0x000),
    DN(___,0,0xC02),
    DN(___,0,0x000),
    DN(G_5,2,0xC0A),
    DN(___,0,0x000),
    DN(___,0,0x000),
    DN(___,0,0xC02),
};
static const unsigned char P9[] = {
    DN(E_5,3,0xC06),
    DN(___,0,0x000),
    DN(___,0,0x000),
    DN(___,0,0x000),
    DN(___,0,0xC04),
    DN(___,0,0x000),
    DN(___,0,0xC00),
    DN(___,0,0x000),
    DN(E_5,3,0xC06),
    DN(___,0,0x000),
    DN(___,0,0x000),
    DN(___,0,0x000),
    DN(___,0,0xC04),
    DN(___,0,0x000),
    DN(___,0,0xC00),
    DN(___,0,0x000),
    DN(E_5,3,0xC06),
    DN(___,0,0x000),
    DN(___,0,0x000),
    DN(___,0,0x000),
    DN(___,0,0xC04),
    DN(___,0,0x000),
    DN(___,0,0xC00),
    DN(___,0,0x000),
    DN(D_5,3,0xC06),
    DN(___,0,0x000),
    DN(___,0,0x000),
    DN(___,0,0x000),
    DN(___,0,0xC04),
    DN(___,0,0x000),
    DN(___,0,0xC00),
    DN(___,0,0x000),
    DN(E_5,3,0xC06),
    DN(___,0,0x000),
    DN(___,0,0x000),
    DN(___,0,0x000),
    DN(___,0,0xC04),
    DN(___,0,0x000),
    DN(___,0,0xC00),
    DN(___,0,0x000),
    DN(E_5,3,0xC06),
    DN(___,0,0x000),
    DN(___,0,0x000),
    DN(___,0,0x000),
    DN(___,0,0xC04),
    DN(___,0,0x000),
    DN(___,0,0xC00),
    DN(___,0,0x000),
    DN(E_5,3,0xC06),
    DN(___,0,0x000),
    DN(___,0,0x000),
    DN(___,0,0x000),
    DN(___,0,0xC04),
    DN(___,0,0x000),
    DN(___,0,0xC00),
    DN(___,0,0x000),
    DN(E_5,3,0xC06),
    DN(___,0,0x000),
    DN(___,0,0x000),
    DN(___,0,0x000),
    DN(___,0,0xC04),
    DN(___,0,0x000),
    DN(___,0,0xC00),
    DN(___,0,0x000),
};
static const unsigned char P10[] = {
    DN(F_4,3,0xC06),
    DN(___,0,0x000),
    DN(___,0,0x000),
    DN(___,0,0x000),
    DN(___,0,0xC03),
    DN(___,0,0x000),
    DN(___,0,0xC00),
    DN(___,0,0x000),
    DN(F_4,3,0xC06),
    DN(___,0,0x000),
    DN(___,0,0x000),
    DN(___,0,0x000),
    DN(___,0,0xC03),
    DN(___,0,0x000),
    DN(___,0,0xC00),
    DN(___,0,0x000),
    DN(F_4,3,0xC06),
    DN(___,0,0x000),
    DN(___,0,0x000),
    DN(___,0,0x000),
    DN(___,0,0xC03),
    DN(___,0,0x000),
    DN(___,0,0xC00),
    DN(___,0,0x000),
    DN(G_4,3,0xC06),
    DN(___,0,0x000),
    DN(___,0,0x000),
    DN(___,0,0x000),
    DN(___,0,0xC03),
    DN(___,0,0x000),
    DN(___,0,0xC00),
    DN(___,0,0x000),
    DN(C_5,3,0xC06),
    DN(___,0,0x000),
    DN(___,0,0x000),
    DN(___,0,0x000),
    DN(___,0,0xC03),
    DN(___,0,0x000),
    DN(___,0,0xC00),
    DN(___,0,0x000),
    DN(C_5,3,0xC06),
    DN(___,0,0x000),
    DN(___,0,0x000),
    DN(___,0,0x000),
    DN(___,0,0xC03),
    DN(___,0,0x000),
    DN(___,0,0xC00),
    DN(___,0,0x000),
    DN(C_5,3,0xC06),
    DN(___,0,0x000),
    DN(___,0,0x000),
    DN(___,0,0x000),
    DN(___,0,0xC03),
    DN(___,0,0x000),
    DN(___,0,0xC00),
    DN(___,0,0x000),
    DN(G_4,3,0xC06),
    DN(___,0,0x000),
    DN(___,0,0x000),
    DN(___,0,0x000),
    DN(___,0,0xC03),
    DN(___,0,0x000),
    DN(___,0,0xC00),
    DN(___,0,0x000),
};
static const unsigned char P11[] = {
    DN(A_5,2,0xC0A),
    DN(___,0,0x000),
    DN(___,0,0x000),
    DN(___,0,0xC02),
    DN(G_5,2,0xC0A),
    DN(___,0,0x000),
    DN(___,0,0x000),
    DN(___,0,0xC02),
    DN(A_5,2,0xC0A),
    DN(___,0,0x000),
    DN(___,0,0x000),
    DN(___,0,0xC02),
    DN(B_5,2,0xC0A),
    DN(___,0,0x000),
    DN(___,0,0x000),
    DN(___,0,0x000),
    DN(___,0,0x000),
    DN(___,0,0x000),
    DN(___,0,0xC02),
    DN(___,0,0x000),
    DN(C_6,2,0xC0A),
    DN(___,0,0x000),
    DN(___,0,0x000),
    DN(___,0,0xC02),
    DN(D_6,2,0xC0A),
    DN(___,0,0x000),
    DN(___,0,0x000),
    DN(___,0,0xC02),
    DN(E_6,2,0xC0A),
    DN(___,0,0x000),
    DN(___,0,0x000),
    DN(___,0,0x000),
    DN(___,0,0x000),
    DN(___,0,0x000),
    DN(___,0,0xC02),
    DN(___,0,0x000),
    DN(F_6,2,0xC0A),
    DN(___,0,0x000),
    DN(___,0,0x000),
    DN(___,0,0xC02),
    DN(E_6,2,0xC0A),
    DN(___,0,0x000),
    DN(F_6,2,0xC0A),
    DN(___,0,0x000),
    DN(D_6,2,0xC0A),
    DN(___,0,0x000),
    DN(___,0,0x000),
    DN(___,0,0x000),
    DN(___,0,0x000),
    DN(___,0,0x000),
    DN(___,0,0x000),
    DN(___,0,0x000),
    DN(___,0,0x000),
    DN(___,0,0x000),
    DN(___,0,0x000),
    DN(___,0,0x000),
    DN(___,0,0xC04),
    DN(___,0,0x000),
    DN(___,0,0x000),
    DN(___,0,0x000),
    DN(___,0,0xC02),
    DN(___,0,0x000),
    DN(___,0,0xC01),
    DN(___,0,0xC00),
};
static const unsigned char P12[] = {
    DN(F_5,3,0xC06),
    DN(___,0,0x000),
    DN(___,0,0x000),
    DN(___,0,0xC01),
    DN(E_5,3,0xC06),
    DN(___,0,0x000),
    DN(___,0,0x000),
    DN(___,0,0xC01),
    DN(F_5,3,0xC06),
    DN(___,0,0x000),
    DN(___,0,0x000),
    DN(___,0,0xC01),
    DN(G_5,3,0xC06),
    DN(___,0,0x000),
    DN(___,0,0x000),
    DN(___,0,0x000),
    DN(___,0,0x000),
    DN(___,0,0x000),
    DN(___,0,0x000),
    DN(___,0,0x000),
    DN(___,0,0x000),
    DN(___,0,0x000),
    DN(___,0,0xC01),
    DN(___,0,0x000),
    DN(B_5,3,0xC06),
    DN(___,0,0x000),
    DN(___,0,0x000),
    DN(___,0,0x000),
    DN(___,0,0x000),
    DN(___,0,0x000),
    DN(___,0,0xC01),
    DN(___,0,0x000),
    DN(C_6,3,0xC06),
    DN(___,0,0x000),
    DN(___,0,0x000),
    DN(___,0,0x000),
    DN(___,0,0x000),
    DN(___,0,0x000),
    DN(___,0,0x000),
    DN(___,0,0x000),
    DN(___,0,0x000),
    DN(___,0,0x000),
    DN(___,0,0x000),
    DN(___,0,0x000),
    DN(___,0,0x000),
    DN(___,0,0x000),
    DN(___,0,0xC01),
    DN(___,0,0x000),
    DN(G_5,3,0xC06),
    DN(___,0,0x000),
    DN(___,0,0x000),
    DN(___,0,0x000),
    DN(___,0,0xC04),
    DN(___,0,0x000),
    DN(___,0,0xC01),
    DN(___,0,0xC00),
    DN(F_5,3,0xC06),
    DN(___,0,0x000),
    DN(___,0,0x000),
    DN(___,0,0x000),
    DN(___,0,0xC04),
    DN(___,0,0x000),
    DN(___,0,0xC01),
    DN(___,0,0xC00),
};
static const unsigned char P13[] = {
    DN(F_4,3,0xC06),
    DN(___,0,0x000),
    DN(___,0,0x000),
    DN(___,0,0x000),
    DN(___,0,0x000),
    DN(___,0,0x000),
    DN(___,0,0x000),
    DN(___,0,0x000),
    DN(___,0,0x000),
    DN(___,0,0x000),
    DN(___,0,0x000),
    DN(___,0,0x000),
    DN(___,0,0xC03),
    DN(___,0,0x000),
    DN(___,0,0xC00),
    DN(___,0,0x000),
    DN(F_5,3,0xC06),
    DN(___,0,0x000),
    DN(___,0,0x000),
    DN(___,0,0x000),
    DN(___,0,0x000),
    DN(___,0,0x000),
    DN(___,0,0xC03),
    DN(___,0,0x000),
    DN(F_4,3,0xC06),
    DN(___,0,0x000),
    DN(___,0,0x000),
    DN(___,0,0x000),
    DN(___,0,0x000),
    DN(___,0,0x000),
    DN(___,0,0xC03),
    DN(___,0,0x000),
    DN(G_4,3,0xC06),
    DN(___,0,0x000),
    DN(___,0,0x000),
    DN(___,0,0x000),
    DN(___,0,0x000),
    DN(___,0,0x000),
    DN(___,0,0x000),
    DN(___,0,0x000),
    DN(___,0,0x000),
    DN(___,0,0x000),
    DN(___,0,0x000),
    DN(___,0,0x000),
    DN(___,0,0xC03),
    DN(___,0,0x000),
    DN(___,0,0xC00),
    DN(___,0,0x000),
    DN(G_5,3,0xC06),
    DN(___,0,0x000),
    DN(___,0,0x000),
    DN(___,0,0x000),
    DN(___,0,0x000),
    DN(___,0,0x000),
    DN(___,0,0xC03),
    DN(___,0,0x000),
    DN(G_4,3,0xC06),
    DN(___,0,0x000),
    DN(___,0,0x000),
    DN(___,0,0x000),
    DN(___,0,0x000),
    DN(___,0,0x000),
    DN(___,0,0xC03),
    DN(___,0,0x000),
};
static const unsigned char P14[] = {
    DN(G_5,3,0xC06),
    DN(___,0,0x000),
    DN(___,0,0x000),
    DN(___,0,0x000),
    DN(___,0,0xC04),
    DN(___,0,0x000),
    DN(___,0,0xC00),
    DN(___,0,0x000),
    DN(G_5,3,0xC06),
    DN(___,0,0x000),
    DN(___,0,0x000),
    DN(___,0,0x000),
    DN(___,0,0xC04),
    DN(___,0,0x000),
    DN(___,0,0xC00),
    DN(___,0,0x000),
    DN(G_5,3,0xC06),
    DN(___,0,0x000),
    DN(___,0,0x000),
    DN(___,0,0x000),
    DN(___,0,0xC04),
    DN(___,0,0x000),
    DN(___,0,0xC00),
    DN(___,0,0x000),
    DN(G_5,3,0xC06),
    DN(___,0,0x000),
    DN(___,0,0x000),
    DN(___,0,0x000),
    DN(___,0,0xC04),
    DN(___,0,0x000),
    DN(___,0,0xC00),
    DN(___,0,0x000),
    DN(G_5,3,0xC06),
    DN(___,0,0x000),
    DN(___,0,0x000),
    DN(___,0,0x000),
    DN(___,0,0xC04),
    DN(___,0,0x000),
    DN(___,0,0xC00),
    DN(___,0,0x000),
    DN(G_5,3,0xC06),
    DN(___,0,0x000),
    DN(___,0,0x000),
    DN(___,0,0x000),
    DN(___,0,0xC04),
    DN(___,0,0x000),
    DN(___,0,0xC00),
    DN(___,0,0x000),
    DN(G_5,3,0xC06),
    DN(___,0,0x000),
    DN(___,0,0x000),
    DN(___,0,0x000),
    DN(___,0,0xC04),
    DN(___,0,0x000),
    DN(___,0,0xC00),
    DN(___,0,0x000),
    DN(G_5,3,0xC06),
    DN(___,0,0x000),
    DN(___,0,0x000),
    DN(___,0,0x000),
    DN(___,0,0xC04),
    DN(___,0,0x000),
    DN(___,0,0xC00),
    DN(___,0,0x000),
};
static const unsigned char P15[] = {
    DN(E_5,3,0xC06),
    DN(___,0,0x000),
    DN(___,0,0x000),
    DN(___,0,0x000),
    DN(___,0,0xC04),
    DN(___,0,0x000),
    DN(___,0,0xC00),
    DN(___,0,0x000),
    DN(E_5,3,0xC06),
    DN(___,0,0x000),
    DN(___,0,0x000),
    DN(___,0,0x000),
    DN(___,0,0xC04),
    DN(___,0,0x000),
    DN(___,0,0xC00),
    DN(___,0,0x000),
    DN(E_5,3,0xC06),
    DN(___,0,0x000),
    DN(___,0,0x000),
    DN(___,0,0x000),
    DN(___,0,0xC04),
    DN(___,0,0x000),
    DN(___,0,0xC00),
    DN(___,0,0x000),
    DN(E_5,3,0xC06),
    DN(___,0,0x000),
    DN(___,0,0x000),
    DN(___,0,0x000),
    DN(___,0,0xC04),
    DN(___,0,0x000),
    DN(___,0,0xC00),
    DN(___,0,0x000),
    DN(F_5,3,0xC06),
    DN(___,0,0x000),
    DN(___,0,0x000),
    DN(___,0,0x000),
    DN(___,0,0xC04),
    DN(___,0,0x000),
    DN(___,0,0xC00),
    DN(___,0,0x000),
    DN(F_5,3,0xC06),
    DN(___,0,0x000),
    DN(___,0,0x000),
    DN(___,0,0x000),
    DN(___,0,0xC04),
    DN(___,0,0x000),
    DN(___,0,0xC00),
    DN(___,0,0x000),
    DN(F_5,3,0xC06),
    DN(___,0,0x000),
    DN(___,0,0x000),
    DN(___,0,0x000),
    DN(___,0,0xC04),
    DN(___,0,0x000),
    DN(___,0,0xC00),
    DN(___,0,0x000),
    DN(F_5,3,0xC06),
    DN(___,0,0x000),
    DN(___,0,0x000),
    DN(___,0,0x000),
    DN(___,0,0xC04),
    DN(___,0,0x000),
    DN(___,0,0xC00),
    DN(___,0,0x000),
};
static const unsigned char P16[] = {
    DN(C_5,3,0xC06),
    DN(___,0,0x000),
    DN(___,0,0x000),
    DN(___,0,0x000),
    DN(___,0,0xC03),
    DN(___,0,0x000),
    DN(___,0,0xC00),
    DN(___,0,0x000),
    DN(C_5,3,0xC06),
    DN(___,0,0x000),
    DN(___,0,0x000),
    DN(___,0,0x000),
    DN(___,0,0xC03),
    DN(___,0,0x000),
    DN(___,0,0xC00),
    DN(___,0,0x000),
    DN(C_5,3,0xC06),
    DN(___,0,0x000),
    DN(___,0,0x000),
    DN(___,0,0x000),
    DN(___,0,0xC03),
    DN(___,0,0x000),
    DN(___,0,0xC00),
    DN(___,0,0x000),
    DN(C_5,3,0xC06),
    DN(___,0,0x000),
    DN(___,0,0x000),
    DN(___,0,0x000),
    DN(___,0,0xC03),
    DN(___,0,0x000),
    DN(___,0,0xC00),
    DN(___,0,0x000),
    DN(F_4,3,0xC06),
    DN(___,0,0x000),
    DN(___,0,0x000),
    DN(___,0,0x000),
    DN(___,0,0xC03),
    DN(___,0,0x000),
    DN(___,0,0xC00),
    DN(___,0,0x000),
    DN(F_4,3,0xC06),
    DN(___,0,0x000),
    DN(___,0,0x000),
    DN(___,0,0x000),
    DN(___,0,0xC03),
    DN(___,0,0x000),
    DN(___,0,0xC00),
    DN(___,0,0x000),
    DN(F_4,3,0xC06),
    DN(___,0,0x000),
    DN(___,0,0x000),
    DN(___,0,0x000),
    DN(___,0,0xC03),
    DN(___,0,0x000),
    DN(___,0,0xC00),
    DN(___,0,0x000),
    DN(G_4,3,0xC06),
    DN(___,0,0x000),
    DN(___,0,0x000),
    DN(___,0,0x000),
    DN(G_5,3,0xC03),
    DN(___,0,0x000),
    DN(___,0,0xC00),
    DN(___,0,0x000),
};

static const unsigned char* const order1[] = {P1,P5,P8,P11,P14,P14};
static const unsigned char* const order2[] = {P2,P6,P9,P12,P15,P15};
static const unsigned char* const order3[] = {P3,P7,P10,P13,P16,P16};
static const unsigned char* const order4[] = {P4,P4,P4,P4,P4,P4};

static const hUGEDutyInstr_t duty_instruments[] = {
    {8,0,240,0,128},
    {8,64,240,0,128},
    {8,128,240,0,128},
};
static const hUGEWaveInstr_t wave_instruments[] = {
    {0,32,0,0,128},
    {0,32,1,0,128},
    {0,32,2,0,128},
};

static const unsigned char waves[] = {
    0,0,255,255,255,255,255,255,255,255,255,255,255,255,255,255,
    0,0,0,0,255,255,255,255,255,255,255,255,255,255,255,255,
    0,0,0,0,0,0,0,0,255,255,255,255,255,255,255,255,
};

const hUGESong_t bgm_howtoplay = {5, &order_cnt, order1, order2, order3,order4, duty_instruments, wave_instruments, NULL, NULL, waves};
